<?xml version="1.0" encoding="utf-8"?>
<!-- Generator: Adobe Illustrator 23.0.0, SVG Export Plug-In . SVG Version: 6.00 Build 0)  -->
<svg version="1.1" id="Layer_1" xmlns="http://www.w3.org/2000/svg" xmlns:xlink="http://www.w3.org/1999/xlink" x="0px" y="0px"
	 viewBox="0 0 64 64" style="enable-background:new 0 0 64 64;" xml:space="preserve">
<path d="M53,23.9c-0.5-9-7.9-16.2-16.9-16.2c-5.4,0-10.7,2.7-13.9,7c-0.1,0-0.2-0.1-0.2-0.1c-0.2-0.1-0.4-0.2-0.6-0.3
	c-0.1,0-0.2-0.1-0.3-0.1c-0.2-0.1-0.4-0.1-0.6-0.2c-0.3,0-0.4,0-0.5,0c-0.2-0.1-0.5-0.1-0.7-0.1c-0.1,0-0.2,0-0.3,0
	c-0.3,0-0.7-0.1-1-0.1c-5,0-9,4-9,9c0,0.1,0,0.3,0,0.4l0,0c-4.2,2.3-7,7-7,11.8c0,7,5.8,12.8,12.8,12.8h24.5c0.1,0,0.2,0,0.3,0h0.1
	h0.1c0.1,0,0.2,0,0.3,0H50c6.6,0,12-5.4,12-12C62,30.2,58.2,25.3,53,23.9z M50,45.8h-9.8c-0.1,0-0.1,0-0.2,0h-0.3h-0.2
	c-0.1,0-0.1,0-0.2,0H14.8C8.9,45.8,4,40.9,4,34.9c0-4.2,2.7-8.5,6.4-10.3l0.6-0.3v-0.6c0-0.1,0-0.3,0-0.4v-0.2v-0.2
	c0-0.1,0-0.2,0-0.2c0-3.9,3.1-7,7-7c0.3,0,0.6,0,0.9,0.1c0.1,0,0.2,0,0.2,0c0.3,0,0.5,0.1,0.8,0.2H20c0.3,0.1,0.6,0.2,0.8,0.3
	c0.1,0,0.1,0.1,0.2,0.1c0.2,0.1,0.5,0.2,0.7,0.4c1.9,1.2,3.2,3.4,3.2,5.9c0,0.6,0.4,1,1,1s1-0.4,1-1c0-2.8-1.2-5.2-3.2-6.9
	C26.6,12,31.3,9.7,36,9.7c7.7,0,14.2,6.1,14.8,13.9c-1-0.1-2.6-0.1-4.1,0.1c-0.5,0.1-0.9,0.6-0.8,1.1c0.1,0.5,0.5,0.9,1,0.9
	c0,0,0.1,0,0.2,0c2.2-0.3,4.5,0,4.7,0c4.7,0.9,8.2,5.2,8.2,10C60,41.3,55.5,45.8,50,45.8z"/>
<g>
	<g>
		<path d="M42.7,41.5c-0.1-0.2-0.3-0.3-0.5-0.3h-7l6.9-8.6c0.1-0.1,0.1-0.3,0-0.5s-0.3-0.2-0.5-0.2h-9.5c-0.2,0-0.4,0.1-0.5,0.2
			L22.6,46c-0.1,0.1-0.1,0.3,0,0.5c0.1,0.1,0.4,0.2,0.5,0.2h6.1l-6.7,12.4c-0.1,0.2,0,0.4,0.2,0.6c0.1,0,0.2,0,0.3,0
			c0.2,0,0.4,0,0.5-0.1l19-17.6C42.8,41.8,42.8,41.6,42.7,41.5z M25.2,56.6l5.5-10.2c0.1-0.1,0.1-0.3-0.1-0.4
			c-0.1-0.1-0.3-0.2-0.5-0.2h-6.1l8.3-13h8.1l-7,8.6c-0.1,0.1-0.1,0.3,0,0.5s0.3,0.2,0.5,0.2h6.9L25.2,56.6z"/>
	</g>
</g>
</svg>
